<?xml version="1.0" standalone="no"?>
<!DOCTYPE svg PUBLIC "-//W3C//DTD SVG 20010904//EN"
 "http://www.w3.org/TR/2001/REC-SVG-20010904/DTD/svg10.dtd">
<svg version="1.0" xmlns="http://www.w3.org/2000/svg"
 width="853.000000pt" height="417.000000pt" viewBox="0 0 853.000000 417.000000"
 preserveAspectRatio="xMidYMid meet">

<g transform="translate(0.000000,417.000000) scale(0.100000,-0.100000)"
fill="#000000" stroke="none">
<path d="M5780 4163 c-24 -10 -30 -25 -30 -84 0 -65 26 -158 76 -267 19 -41
32 -77 30 -79 -2 -3 -672 1 -1488 7 -1378 11 -1487 13 -1543 30 -149 45 -368
68 -705 77 -287 7 -449 -4 -654 -44 -290 -55 -577 -179 -791 -341 -329 -250
-553 -609 -642 -1031 -24 -112 -27 -149 -27 -336 -1 -133 4 -237 12 -285 149
-839 775 -1391 1681 -1480 57 -5 198 -10 315 -10 335 0 607 26 791 75 l90 24
1479 10 c814 6 1481 9 1483 7 2 -2 -12 -38 -32 -81 -50 -110 -75 -198 -75
-264 0 -77 7 -84 83 -89 50 -3 72 0 104 16 74 38 137 126 174 242 l17 55 94
-5 c221 -12 641 -4 758 13 465 71 804 220 1063 466 260 248 414 580 463 1002
22 194 15 512 -15 683 -64 361 -191 617 -421 846 -282 283 -641 443 -1159 516
-129 18 -561 29 -689 17 l-92 -9 -11 41 c-33 122 -109 232 -184 266 -38 18
-123 24 -155 12z m717 -682 c343 -346 533 -904 510 -1496 -23 -570 -217 -1047
-552 -1356 l-43 -39 -358 160 c-197 89 -360 163 -362 165 -3 2 10 27 27 55
116 189 195 529 210 905 19 501 -46 908 -191 1200 -22 44 -51 95 -65 113 -22
29 -23 33 -7 39 10 3 182 77 383 164 201 87 369 158 373 158 4 1 38 -30 75
-68z m-4262 -229 c-6 -5 -53 -37 -105 -72 -474 -315 -742 -719 -742 -1120 0
-226 65 -413 215 -616 132 -180 368 -378 600 -505 l72 -39 -105 -1 c-58 0
-251 -4 -430 -8 -244 -6 -330 -5 -345 4 -45 27 -216 188 -290 274 -283 327
-418 648 -402 951 14 244 117 493 308 740 80 104 263 293 347 358 l54 42 416
0 c229 0 412 -4 407 -8z"/>
</g>
</svg>
